<svg xmlns="http://www.w3.org/2000/svg" version="1.1" xmlns:xlink="http://www.w3.org/1999/xlink" xmlns:svgjs="http://svgjs.com/svgjs" width="3840" height="3840" preserveAspectRatio="none" viewBox="0 0 3840 3840"><g mask="url(&quot;#SvgjsMask1217&quot;)" fill="none"><rect width="3840" height="3840" x="0" y="0" fill="rgba(0, 0, 0, 1)"></rect><use xlink:href="#SvgjsSymbol1224" x="0" y="0"></use><use xlink:href="#SvgjsSymbol1224" x="0" y="720"></use><use xlink:href="#SvgjsSymbol1224" x="0" y="1440"></use><use xlink:href="#SvgjsSymbol1224" x="0" y="2160"></use><use xlink:href="#SvgjsSymbol1224" x="0" y="2880"></use><use xlink:href="#SvgjsSymbol1224" x="0" y="3600"></use><use xlink:href="#SvgjsSymbol1224" x="720" y="0"></use><use xlink:href="#SvgjsSymbol1224" x="720" y="720"></use><use xlink:href="#SvgjsSymbol1224" x="720" y="1440"></use><use xlink:href="#SvgjsSymbol1224" x="720" y="2160"></use><use xlink:href="#SvgjsSymbol1224" x="720" y="2880"></use><use xlink:href="#SvgjsSymbol1224" x="720" y="3600"></use><use xlink:href="#SvgjsSymbol1224" x="1440" y="0"></use><use xlink:href="#SvgjsSymbol1224" x="1440" y="720"></use><use xlink:href="#SvgjsSymbol1224" x="1440" y="1440"></use><use xlink:href="#SvgjsSymbol1224" x="1440" y="2160"></use><use xlink:href="#SvgjsSymbol1224" x="1440" y="2880"></use><use xlink:href="#SvgjsSymbol1224" x="1440" y="3600"></use><use xlink:href="#SvgjsSymbol1224" x="2160" y="0"></use><use xlink:href="#SvgjsSymbol1224" x="2160" y="720"></use><use xlink:href="#SvgjsSymbol1224" x="2160" y="1440"></use><use xlink:href="#SvgjsSymbol1224" x="2160" y="2160"></use><use xlink:href="#SvgjsSymbol1224" x="2160" y="2880"></use><use xlink:href="#SvgjsSymbol1224" x="2160" y="3600"></use><use xlink:href="#SvgjsSymbol1224" x="2880" y="0"></use><use xlink:href="#SvgjsSymbol1224" x="2880" y="720"></use><use xlink:href="#SvgjsSymbol1224" x="2880" y="1440"></use><use xlink:href="#SvgjsSymbol1224" x="2880" y="2160"></use><use xlink:href="#SvgjsSymbol1224" x="2880" y="2880"></use><use xlink:href="#SvgjsSymbol1224" x="2880" y="3600"></use><use xlink:href="#SvgjsSymbol1224" x="3600" y="0"></use><use xlink:href="#SvgjsSymbol1224" x="3600" y="720"></use><use xlink:href="#SvgjsSymbol1224" x="3600" y="1440"></use><use xlink:href="#SvgjsSymbol1224" x="3600" y="2160"></use><use xlink:href="#SvgjsSymbol1224" x="3600" y="2880"></use><use xlink:href="#SvgjsSymbol1224" x="3600" y="3600"></use></g><defs><mask id="SvgjsMask1217"><rect width="3840" height="3840" fill="#ffffff"></rect></mask><path d="M-1 0 a1 1 0 1 0 2 0 a1 1 0 1 0 -2 0z" id="SvgjsPath1223"></path><path d="M-3 0 a3 3 0 1 0 6 0 a3 3 0 1 0 -6 0z" id="SvgjsPath1221"></path><path d="M-5 0 a5 5 0 1 0 10 0 a5 5 0 1 0 -10 0z" id="SvgjsPath1220"></path><path d="M2 -2 L-2 2z" id="SvgjsPath1222"></path><path d="M6 -6 L-6 6z" id="SvgjsPath1218"></path><path d="M30 -30 L-30 30z" id="SvgjsPath1219"></path></defs><symbol id="SvgjsSymbol1224"><use xlink:href="#SvgjsPath1218" x="30" y="30" stroke="rgba(221, 225, 229, 1)"></use><use xlink:href="#SvgjsPath1219" x="30" y="90" stroke="rgba(221, 225, 229, 1)" stroke-width="3"></use><use xlink:href="#SvgjsPath1219" x="30" y="150" stroke="rgba(221, 225, 229, 1)" stroke-width="3"></use><use xlink:href="#SvgjsPath1220" x="30" y="210" stroke="rgba(221, 225, 229, 1)"></use><use xlink:href="#SvgjsPath1220" x="30" y="270" stroke="rgba(221, 225, 229, 1)"></use><use xlink:href="#SvgjsPath1220" x="30" y="330" stroke="rgba(221, 225, 229, 1)"></use><use xlink:href="#SvgjsPath1220" x="30" y="390" stroke="rgba(221, 225, 229, 1)"></use><use xlink:href="#SvgjsPath1221" x="30" y="450" stroke="rgba(221, 225, 229, 1)"></use><use xlink:href="#SvgjsPath1220" x="30" y="510" stroke="rgba(221, 225, 229, 1)"></use><use xlink:href="#SvgjsPath1222" x="30" y="570" stroke="rgba(221, 225, 229, 1)"></use><use xlink:href="#SvgjsPath1223" x="30" y="630" stroke="rgba(221, 225, 229, 1)"></use><use xlink:href="#SvgjsPath1220" x="30" y="690" stroke="rgba(221, 225, 229, 1)"></use><use xlink:href="#SvgjsPath1218" x="90" y="30" stroke="rgba(221, 225, 229, 1)"></use><use xlink:href="#SvgjsPath1220" x="90" y="90" stroke="rgba(221, 225, 229, 1)"></use><use xlink:href="#SvgjsPath1223" x="90" y="150" stroke="rgba(221, 225, 229, 1)"></use><use xlink:href="#SvgjsPath1222" x="90" y="210" stroke="rgba(221, 225, 229, 1)"></use><use xlink:href="#SvgjsPath1218" x="90" y="270" stroke="rgba(221, 225, 229, 1)"></use><use xlink:href="#SvgjsPath1220" x="90" y="330" stroke="rgba(221, 225, 229, 1)"></use><use xlink:href="#SvgjsPath1222" x="90" y="390" stroke="rgba(221, 225, 229, 1)"></use><use xlink:href="#SvgjsPath1221" x="90" y="450" stroke="rgba(221, 225, 229, 1)"></use><use xlink:href="#SvgjsPath1220" x="90" y="510" stroke="rgba(221, 225, 229, 1)"></use><use xlink:href="#SvgjsPath1220" x="90" y="570" stroke="rgba(221, 225, 229, 1)"></use><use xlink:href="#SvgjsPath1223" x="90" y="630" stroke="rgba(221, 225, 229, 1)"></use><use xlink:href="#SvgjsPath1222" x="90" y="690" stroke="rgba(221, 225, 229, 1)"></use><use xlink:href="#SvgjsPath1219" x="150" y="30" stroke="rgba(221, 225, 229, 1)" stroke-width="3"></use><use xlink:href="#SvgjsPath1218" x="150" y="90" stroke="rgba(221, 225, 229, 1)"></use><use xlink:href="#SvgjsPath1218" x="150" y="150" stroke="rgba(221, 225, 229, 1)"></use><use xlink:href="#SvgjsPath1218" x="150" y="210" stroke="rgba(221, 225, 229, 1)"></use><use xlink:href="#SvgjsPath1223" x="150" y="270" stroke="rgba(221, 225, 229, 1)"></use><use xlink:href="#SvgjsPath1218" x="150" y="330" stroke="rgba(221, 225, 229, 1)"></use><use xlink:href="#SvgjsPath1218" x="150" y="390" stroke="rgba(221, 225, 229, 1)"></use><use xlink:href="#SvgjsPath1220" x="150" y="450" stroke="rgba(221, 225, 229, 1)"></use><use xlink:href="#SvgjsPath1222" x="150" y="510" stroke="rgba(221, 225, 229, 1)"></use><use xlink:href="#SvgjsPath1218" x="150" y="570" stroke="rgba(221, 225, 229, 1)"></use><use xlink:href="#SvgjsPath1218" x="150" y="630" stroke="rgba(221, 225, 229, 1)"></use><use xlink:href="#SvgjsPath1220" x="150" y="690" stroke="rgba(221, 225, 229, 1)"></use><use xlink:href="#SvgjsPath1220" x="210" y="30" stroke="rgba(221, 225, 229, 1)"></use><use xlink:href="#SvgjsPath1220" x="210" y="90" stroke="rgba(221, 225, 229, 1)"></use><use xlink:href="#SvgjsPath1220" x="210" y="150" stroke="rgba(221, 225, 229, 1)"></use><use xlink:href="#SvgjsPath1218" x="210" y="210" stroke="rgba(221, 225, 229, 1)"></use><use xlink:href="#SvgjsPath1220" x="210" y="270" stroke="rgba(221, 225, 229, 1)"></use><use xlink:href="#SvgjsPath1219" x="210" y="330" stroke="rgba(221, 225, 229, 1)" stroke-width="3"></use><use xlink:href="#SvgjsPath1218" x="210" y="390" stroke="rgba(221, 225, 229, 1)"></use><use xlink:href="#SvgjsPath1218" x="210" y="450" stroke="rgba(221, 225, 229, 1)"></use><use xlink:href="#SvgjsPath1219" x="210" y="510" stroke="rgba(221, 225, 229, 1)" stroke-width="3"></use><use xlink:href="#SvgjsPath1218" x="210" y="570" stroke="rgba(221, 225, 229, 1)"></use><use xlink:href="#SvgjsPath1220" x="210" y="630" stroke="rgba(221, 225, 229, 1)"></use><use xlink:href="#SvgjsPath1218" x="210" y="690" stroke="rgba(221, 225, 229, 1)"></use><use xlink:href="#SvgjsPath1218" x="270" y="30" stroke="rgba(221, 225, 229, 1)"></use><use xlink:href="#SvgjsPath1221" x="270" y="90" stroke="rgba(221, 225, 229, 1)"></use><use xlink:href="#SvgjsPath1218" x="270" y="150" stroke="rgba(221, 225, 229, 1)"></use><use xlink:href="#SvgjsPath1220" x="270" y="210" stroke="rgba(221, 225, 229, 1)"></use><use xlink:href="#SvgjsPath1222" x="270" y="270" stroke="rgba(221, 225, 229, 1)"></use><use xlink:href="#SvgjsPath1223" x="270" y="330" stroke="rgba(221, 225, 229, 1)"></use><use xlink:href="#SvgjsPath1223" x="270" y="390" stroke="rgba(221, 225, 229, 1)"></use><use xlink:href="#SvgjsPath1220" x="270" y="450" stroke="rgba(221, 225, 229, 1)"></use><use xlink:href="#SvgjsPath1223" x="270" y="510" stroke="rgba(221, 225, 229, 1)"></use><use xlink:href="#SvgjsPath1218" x="270" y="570" stroke="rgba(221, 225, 229, 1)"></use><use xlink:href="#SvgjsPath1223" x="270" y="630" stroke="rgba(221, 225, 229, 1)"></use><use xlink:href="#SvgjsPath1218" x="270" y="690" stroke="rgba(221, 225, 229, 1)"></use><use xlink:href="#SvgjsPath1223" x="330" y="30" stroke="rgba(221, 225, 229, 1)"></use><use xlink:href="#SvgjsPath1218" x="330" y="90" stroke="rgba(221, 225, 229, 1)"></use><use xlink:href="#SvgjsPath1222" x="330" y="150" stroke="rgba(221, 225, 229, 1)"></use><use xlink:href="#SvgjsPath1220" x="330" y="210" stroke="rgba(221, 225, 229, 1)"></use><use xlink:href="#SvgjsPath1218" x="330" y="270" stroke="rgba(221, 225, 229, 1)"></use><use xlink:href="#SvgjsPath1221" x="330" y="330" stroke="rgba(221, 225, 229, 1)"></use><use xlink:href="#SvgjsPath1220" x="330" y="390" stroke="rgba(221, 225, 229, 1)"></use><use xlink:href="#SvgjsPath1220" x="330" y="450" stroke="rgba(221, 225, 229, 1)"></use><use xlink:href="#SvgjsPath1222" x="330" y="510" stroke="rgba(221, 225, 229, 1)"></use><use xlink:href="#SvgjsPath1222" x="330" y="570" stroke="rgba(221, 225, 229, 1)"></use><use xlink:href="#SvgjsPath1218" x="330" y="630" stroke="rgba(221, 225, 229, 1)"></use><use xlink:href="#SvgjsPath1222" x="330" y="690" stroke="rgba(221, 225, 229, 1)"></use><use xlink:href="#SvgjsPath1222" x="390" y="30" stroke="rgba(221, 225, 229, 1)"></use><use xlink:href="#SvgjsPath1222" x="390" y="90" stroke="rgba(221, 225, 229, 1)"></use><use xlink:href="#SvgjsPath1222" x="390" y="150" stroke="rgba(221, 225, 229, 1)"></use><use xlink:href="#SvgjsPath1221" x="390" y="210" stroke="rgba(221, 225, 229, 1)"></use><use xlink:href="#SvgjsPath1218" x="390" y="270" stroke="rgba(221, 225, 229, 1)"></use><use xlink:href="#SvgjsPath1220" x="390" y="330" stroke="rgba(221, 225, 229, 1)"></use><use xlink:href="#SvgjsPath1223" x="390" y="390" stroke="rgba(221, 225, 229, 1)"></use><use xlink:href="#SvgjsPath1220" x="390" y="450" stroke="rgba(221, 225, 229, 1)"></use><use xlink:href="#SvgjsPath1223" x="390" y="510" stroke="rgba(221, 225, 229, 1)"></use><use xlink:href="#SvgjsPath1221" x="390" y="570" stroke="rgba(221, 225, 229, 1)"></use><use xlink:href="#SvgjsPath1223" x="390" y="630" stroke="rgba(221, 225, 229, 1)"></use><use xlink:href="#SvgjsPath1218" x="390" y="690" stroke="rgba(221, 225, 229, 1)"></use><use xlink:href="#SvgjsPath1219" x="450" y="30" stroke="rgba(221, 225, 229, 1)" stroke-width="3"></use><use xlink:href="#SvgjsPath1221" x="450" y="90" stroke="rgba(221, 225, 229, 1)"></use><use xlink:href="#SvgjsPath1218" x="450" y="150" stroke="rgba(221, 225, 229, 1)"></use><use xlink:href="#SvgjsPath1223" x="450" y="210" stroke="rgba(221, 225, 229, 1)"></use><use xlink:href="#SvgjsPath1222" x="450" y="270" stroke="rgba(221, 225, 229, 1)"></use><use xlink:href="#SvgjsPath1223" x="450" y="330" stroke="rgba(221, 225, 229, 1)"></use><use xlink:href="#SvgjsPath1221" x="450" y="390" stroke="rgba(221, 225, 229, 1)"></use><use xlink:href="#SvgjsPath1223" x="450" y="450" stroke="rgba(221, 225, 229, 1)"></use><use xlink:href="#SvgjsPath1220" x="450" y="510" stroke="rgba(221, 225, 229, 1)"></use><use xlink:href="#SvgjsPath1219" x="450" y="570" stroke="rgba(221, 225, 229, 1)" stroke-width="3"></use><use xlink:href="#SvgjsPath1222" x="450" y="630" stroke="rgba(221, 225, 229, 1)"></use><use xlink:href="#SvgjsPath1220" x="450" y="690" stroke="rgba(221, 225, 229, 1)"></use><use xlink:href="#SvgjsPath1223" x="510" y="30" stroke="rgba(221, 225, 229, 1)"></use><use xlink:href="#SvgjsPath1222" x="510" y="90" stroke="rgba(221, 225, 229, 1)"></use><use xlink:href="#SvgjsPath1219" x="510" y="150" stroke="rgba(221, 225, 229, 1)" stroke-width="3"></use><use xlink:href="#SvgjsPath1222" x="510" y="210" stroke="rgba(221, 225, 229, 1)"></use><use xlink:href="#SvgjsPath1218" x="510" y="270" stroke="rgba(221, 225, 229, 1)"></use><use xlink:href="#SvgjsPath1220" x="510" y="330" stroke="rgba(221, 225, 229, 1)"></use><use xlink:href="#SvgjsPath1221" x="510" y="390" stroke="rgba(221, 225, 229, 1)"></use><use xlink:href="#SvgjsPath1218" x="510" y="450" stroke="rgba(221, 225, 229, 1)"></use><use xlink:href="#SvgjsPath1218" x="510" y="510" stroke="rgba(221, 225, 229, 1)"></use><use xlink:href="#SvgjsPath1222" x="510" y="570" stroke="rgba(221, 225, 229, 1)"></use><use xlink:href="#SvgjsPath1223" x="510" y="630" stroke="rgba(221, 225, 229, 1)"></use><use xlink:href="#SvgjsPath1221" x="510" y="690" stroke="rgba(221, 225, 229, 1)"></use><use xlink:href="#SvgjsPath1220" x="570" y="30" stroke="rgba(221, 225, 229, 1)"></use><use xlink:href="#SvgjsPath1218" x="570" y="90" stroke="rgba(221, 225, 229, 1)"></use><use xlink:href="#SvgjsPath1218" x="570" y="150" stroke="rgba(221, 225, 229, 1)"></use><use xlink:href="#SvgjsPath1222" x="570" y="210" stroke="rgba(221, 225, 229, 1)"></use><use xlink:href="#SvgjsPath1218" x="570" y="270" stroke="rgba(221, 225, 229, 1)"></use><use xlink:href="#SvgjsPath1220" x="570" y="330" stroke="rgba(221, 225, 229, 1)"></use><use xlink:href="#SvgjsPath1218" x="570" y="390" stroke="rgba(221, 225, 229, 1)"></use><use xlink:href="#SvgjsPath1218" x="570" y="450" stroke="rgba(221, 225, 229, 1)"></use><use xlink:href="#SvgjsPath1219" x="570" y="510" stroke="rgba(221, 225, 229, 1)" stroke-width="3"></use><use xlink:href="#SvgjsPath1222" x="570" y="570" stroke="rgba(221, 225, 229, 1)"></use><use xlink:href="#SvgjsPath1220" x="570" y="630" stroke="rgba(221, 225, 229, 1)"></use><use xlink:href="#SvgjsPath1222" x="570" y="690" stroke="rgba(221, 225, 229, 1)"></use><use xlink:href="#SvgjsPath1222" x="630" y="30" stroke="rgba(221, 225, 229, 1)"></use><use xlink:href="#SvgjsPath1220" x="630" y="90" stroke="rgba(221, 225, 229, 1)"></use><use xlink:href="#SvgjsPath1218" x="630" y="150" stroke="rgba(221, 225, 229, 1)"></use><use xlink:href="#SvgjsPath1220" x="630" y="210" stroke="rgba(221, 225, 229, 1)"></use><use xlink:href="#SvgjsPath1221" x="630" y="270" stroke="rgba(221, 225, 229, 1)"></use><use xlink:href="#SvgjsPath1222" x="630" y="330" stroke="rgba(221, 225, 229, 1)"></use><use xlink:href="#SvgjsPath1220" x="630" y="390" stroke="rgba(221, 225, 229, 1)"></use><use xlink:href="#SvgjsPath1221" x="630" y="450" stroke="rgba(221, 225, 229, 1)"></use><use xlink:href="#SvgjsPath1220" x="630" y="510" stroke="rgba(221, 225, 229, 1)"></use><use xlink:href="#SvgjsPath1223" x="630" y="570" stroke="rgba(221, 225, 229, 1)"></use><use xlink:href="#SvgjsPath1218" x="630" y="630" stroke="rgba(221, 225, 229, 1)"></use><use xlink:href="#SvgjsPath1223" x="630" y="690" stroke="rgba(221, 225, 229, 1)"></use><use xlink:href="#SvgjsPath1222" x="690" y="30" stroke="rgba(221, 225, 229, 1)"></use><use xlink:href="#SvgjsPath1220" x="690" y="90" stroke="rgba(221, 225, 229, 1)"></use><use xlink:href="#SvgjsPath1218" x="690" y="150" stroke="rgba(221, 225, 229, 1)"></use><use xlink:href="#SvgjsPath1222" x="690" y="210" stroke="rgba(221, 225, 229, 1)"></use><use xlink:href="#SvgjsPath1222" x="690" y="270" stroke="rgba(221, 225, 229, 1)"></use><use xlink:href="#SvgjsPath1223" x="690" y="330" stroke="rgba(221, 225, 229, 1)"></use><use xlink:href="#SvgjsPath1218" x="690" y="390" stroke="rgba(221, 225, 229, 1)"></use><use xlink:href="#SvgjsPath1218" x="690" y="450" stroke="rgba(221, 225, 229, 1)"></use><use xlink:href="#SvgjsPath1223" x="690" y="510" stroke="rgba(221, 225, 229, 1)"></use><use xlink:href="#SvgjsPath1218" x="690" y="570" stroke="rgba(221, 225, 229, 1)"></use><use xlink:href="#SvgjsPath1218" x="690" y="630" stroke="rgba(221, 225, 229, 1)"></use><use xlink:href="#SvgjsPath1218" x="690" y="690" stroke="rgba(221, 225, 229, 1)"></use></symbol></svg>